<svg xmlns="http://www.w3.org/2000/svg" viewBox="0 0 100 100" width="48" height="48">
  <g transform="translate(50, 50) rotate(45) scale(0.85) translate(-50, -50)" 
     stroke="#FFFFFF" stroke-width="10" fill="none" stroke-linecap="round" stroke-linejoin="round">
    
    <path d="M 56 44 L 16 44 A 14 14 0 0 1 16 16 L 36 16 A 12 12 0 0 1 48 28 L 48 36" />
    
    <path d="M 56 44 L 16 44 A 14 14 0 0 1 16 16 L 36 16 A 12 12 0 0 1 48 28 L 48 36" transform="rotate(90 50 50)" />
    
    <path d="M 56 44 L 16 44 A 14 14 0 0 1 16 16 L 36 16 A 12 12 0 0 1 48 28 L 48 36" transform="rotate(180 50 50)" />
    
    <path d="M 56 44 L 16 44 A 14 14 0 0 1 16 16 L 36 16 A 12 12 0 0 1 48 28 L 48 36" transform="rotate(270 50 50)" />
    
  </g>
</svg>
