<svg xmlns="http://www.w3.org/2000/svg" xmlns:xlink="http://www.w3.org/1999/xlink" width="2000" zoomAndPan="magnify" viewBox="0 0 1500 1499.999933" height="2000" preserveAspectRatio="xMidYMid meet" version="1.0"><defs><clipPath id="f4e3b25a73"><path d="M 654.382812 654.382812 L 845.617188 654.382812 L 845.617188 845.617188 L 654.382812 845.617188 Z M 654.382812 654.382812 " clip-rule="nonzero"/></clipPath><clipPath id="fdec101257"><path d="M 750 654.382812 C 697.191406 654.382812 654.382812 697.191406 654.382812 750 C 654.382812 802.808594 697.191406 845.617188 750 845.617188 C 802.808594 845.617188 845.617188 802.808594 845.617188 750 C 845.617188 697.191406 802.808594 654.382812 750 654.382812 Z M 750 654.382812 " clip-rule="nonzero"/></clipPath><clipPath id="fcd97e96a9"><path d="M 0.382812 0.382812 L 191.617188 0.382812 L 191.617188 191.617188 L 0.382812 191.617188 Z M 0.382812 0.382812 " clip-rule="nonzero"/></clipPath><clipPath id="80ca39b097"><path d="M 96 0.382812 C 43.191406 0.382812 0.382812 43.191406 0.382812 96 C 0.382812 148.808594 43.191406 191.617188 96 191.617188 C 148.808594 191.617188 191.617188 148.808594 191.617188 96 C 191.617188 43.191406 148.808594 0.382812 96 0.382812 Z M 96 0.382812 " clip-rule="nonzero"/></clipPath><clipPath id="6216ec07c8"><rect x="0" width="192" y="0" height="192"/></clipPath></defs><path stroke-linecap="round" transform="matrix(8.280839, 8.280839, -8.280839, 8.280839, 749.847569, -78.23638)" fill="none" stroke-linejoin="round" d="M 56.000077 43.999942 L 15.999977 43.999942 C 15.770721 43.999942 15.541936 43.994281 15.312915 43.983196 C 15.08413 43.971875 14.855817 43.954893 14.627739 43.932486 C 14.399662 43.910079 14.172528 43.882012 13.94563 43.848519 C 13.718968 43.814791 13.493485 43.775638 13.26871 43.731061 C 13.04417 43.686247 12.820574 43.636245 12.598158 43.580346 C 12.375977 43.524683 12.155211 43.46383 11.936096 43.397082 C 11.716746 43.330569 11.499282 43.258867 11.28347 43.181741 C 11.067893 43.104379 10.853967 43.022063 10.642636 42.934323 C 10.430833 42.846583 10.221389 42.753654 10.014067 42.655771 C 9.807217 42.557889 9.60249 42.455054 9.400357 42.346794 C 9.19846 42.23877 8.998922 42.126028 8.802686 42.008098 C 8.606214 41.890403 8.412572 41.767992 8.221997 41.640627 C 8.031421 41.513262 7.844384 41.381416 7.660176 41.244852 C 7.476205 41.108525 7.295536 40.96748 7.11864 40.82219 C 6.941273 40.6769 6.767915 40.527128 6.598095 40.373347 C 6.428512 40.21933 6.262701 40.061539 6.100665 39.899503 C 5.938629 39.737466 5.780602 39.57142 5.626585 39.401836 C 5.472804 39.232017 5.323032 39.058659 5.177978 38.881527 C 5.032452 38.704396 4.891643 38.523963 4.755079 38.339755 C 4.618752 38.155784 4.48667 37.96851 4.359305 37.777935 C 4.232176 37.587595 4.109764 37.393954 3.991834 37.197246 C 3.873904 37.00101 3.761162 36.801471 3.653138 36.599575 C 3.545114 36.397678 3.442278 36.192951 3.34416 35.985865 C 3.246278 35.778543 3.153349 35.569099 3.065845 35.357532 C 2.977869 35.145965 2.895553 34.932039 2.818191 34.716462 C 2.741064 34.50065 2.669363 34.283186 2.60285 34.063835 C 2.536337 33.844957 2.475249 33.623955 2.419586 33.401774 C 2.363923 33.179593 2.31392 32.955997 2.268871 32.731222 C 2.224293 32.506447 2.18514 32.280964 2.151412 32.054302 C 2.11792 31.827404 2.089853 31.60027 2.067446 31.372192 C 2.045039 31.144115 2.028057 30.915802 2.016736 30.687017 C 2.00565 30.457996 1.99999 30.229211 1.99999 29.999954 C 1.99999 29.770698 2.00565 29.541913 2.016972 29.313128 C 2.028057 29.084107 2.045039 28.855794 2.067446 28.627716 C 2.089853 28.399639 2.11792 28.172505 2.151648 27.945843 C 2.18514 27.718945 2.224293 27.493462 2.268871 27.268687 C 2.313685 27.044147 2.363687 26.820551 2.419586 26.598135 C 2.475249 26.375954 2.536337 26.155424 2.60285 25.936073 C 2.669363 25.716723 2.741064 25.499259 2.818427 25.283682 C 2.895553 25.06787 2.978104 24.85418 3.065845 24.642377 C 3.153349 24.43081 3.246278 24.221366 3.34416 24.014044 C 3.442043 23.807194 3.545114 23.602703 3.653138 23.400334 C 3.761162 23.198437 3.874139 22.999135 3.991834 22.802663 C 4.109528 22.606191 4.23194 22.412549 4.359305 22.221974 C 4.48667 22.031398 4.618516 21.844361 4.755079 21.660154 C 4.891407 21.476182 5.032452 21.295513 5.177742 21.118617 C 5.323268 20.941486 5.472804 20.767892 5.626585 20.598072 C 5.780602 20.428489 5.938629 20.262443 6.100429 20.100642 C 6.262466 19.938606 6.428512 19.780579 6.598095 19.626562 C 6.767915 19.472781 6.941509 19.323245 7.118404 19.177955 C 7.295536 19.032429 7.476205 18.891384 7.660176 18.755056 C 7.844148 18.618729 8.031421 18.486647 8.221997 18.359282 C 8.412336 18.232153 8.605978 18.109741 8.802686 17.991811 C 8.999158 17.874116 9.19846 17.761139 9.400357 17.653115 C 9.602726 17.545091 9.807217 17.44202 10.014067 17.344137 C 10.221389 17.246255 10.430833 17.153326 10.6424 17.065822 C 10.854203 16.978081 11.067893 16.89553 11.283705 16.818404 C 11.499282 16.741041 11.716746 16.66934 11.936096 16.602827 C 12.155447 16.536314 12.375977 16.475226 12.598158 16.419563 C 12.820338 16.3639 13.04417 16.313662 13.26871 16.268848 C 13.493485 16.22427 13.718968 16.185118 13.945866 16.151625 C 14.172528 16.117897 14.399662 16.08983 14.627739 16.067423 C 14.855817 16.045016 15.08413 16.028034 15.313151 16.016949 C 15.541936 16.005627 15.770721 15.999967 15.999977 15.999967 L 36.000027 15.999967 C 36.196263 15.999967 36.392735 16.00492 36.588736 16.01459 C 36.784972 16.024025 36.980736 16.038648 37.176265 16.057753 C 37.371557 16.077093 37.566378 16.101151 37.760728 16.129926 C 37.955077 16.158701 38.148483 16.192193 38.341181 16.230639 C 38.533643 16.268848 38.725162 16.311775 38.915738 16.359419 C 39.106078 16.407298 39.295474 16.459895 39.483455 16.516738 C 39.671436 16.57358 39.857766 16.635376 40.042681 16.701417 C 40.227595 16.767458 40.410623 16.838216 40.592 16.913456 C 40.773613 16.988459 40.953103 17.067944 41.130706 17.152147 C 41.308074 17.236113 41.483554 17.324325 41.656912 17.417018 C 41.830034 17.509476 42.000797 17.606179 42.169201 17.707127 C 42.337606 17.808075 42.503652 17.913269 42.666868 18.022237 C 42.830319 18.131441 42.990704 18.244654 43.148495 18.361405 C 43.30605 18.478392 43.461011 18.599388 43.612669 18.723687 C 43.764328 18.848457 43.913156 18.97653 44.058682 19.108376 C 44.204208 19.240694 44.346432 19.375842 44.485354 19.514764 C 44.624276 19.653686 44.759424 19.79591 44.891506 19.9412 C 45.023352 20.086726 45.151425 20.235554 45.276195 20.387213 C 45.40073 20.539107 45.52149 20.693832 45.638477 20.851387 C 45.755464 21.009414 45.868677 21.169799 45.977645 21.333015 C 46.086849 21.496466 46.191807 21.662276 46.292755 21.830681 C 46.393704 21.999085 46.490642 22.170085 46.5831 22.343206 C 46.675557 22.516328 46.763769 22.691809 46.847971 22.869412 C 46.931938 23.046779 47.011423 23.226269 47.086427 23.407882 C 47.161666 23.589259 47.232424 23.772287 47.298465 23.957202 C 47.364742 24.142352 47.426066 24.328682 47.48338 24.516663 C 47.540223 24.704644 47.592584 24.893805 47.640464 25.084144 C 47.688107 25.27472 47.731034 25.466239 47.769479 25.658937 C 47.807689 25.851399 47.841417 26.045041 47.869956 26.239154 C 47.898731 26.433504 47.922789 26.628325 47.942365 26.823853 C 47.96147 27.019382 47.975858 27.21491 47.985528 27.411382 C 47.995198 27.607383 47.999915 27.803619 47.999915 27.999855 L 48.000151 36.000016 " stroke="#2563eb" stroke-width="10" stroke-opacity="1" stroke-miterlimit="4"/><path stroke-linecap="round" transform="matrix(-8.280839, 8.280839, -8.280839, -8.280839, 1577.931353, 749.847515)" fill="none" stroke-linejoin="round" d="M 56.000059 43.999918 L 15.99996 43.999918 C 15.770939 44.000154 15.541919 43.994258 15.312898 43.983172 C 15.084113 43.971851 14.8558 43.954869 14.627722 43.932462 C 14.399645 43.910055 14.172511 43.881988 13.945613 43.848496 C 13.719187 43.815003 13.493468 43.775615 13.268692 43.731037 C 13.044153 43.686224 12.820557 43.636221 12.598376 43.580558 C 12.375959 43.524659 12.155194 43.463807 11.936079 43.397058 C 11.716729 43.330545 11.499265 43.258844 11.283452 43.181717 C 11.067876 43.104355 10.85395 43.02204 10.642619 42.934299 C 10.430816 42.846559 10.221371 42.75363 10.014286 42.655984 C 9.8072 42.557866 9.602473 42.45503 9.40034 42.34677 C 9.198443 42.238746 8.998905 42.126005 8.802669 42.008074 C 8.606197 41.89038 8.412555 41.767968 8.22198 41.640603 C 8.031404 41.513238 7.844367 41.381392 7.660159 41.244829 C 7.476188 41.108501 7.295519 40.967456 7.118623 40.822166 C 6.941256 40.676876 6.767898 40.527104 6.598078 40.373323 C 6.428494 40.219306 6.262684 40.061515 6.100648 39.899479 C 5.938612 39.737443 5.780585 39.571397 5.626568 39.401813 C 5.472786 39.231993 5.323015 39.058635 5.177961 38.881504 C 5.032434 38.704372 4.891626 38.523939 4.755062 38.339732 C 4.618735 38.15576 4.486653 37.968487 4.359288 37.777911 C 4.232159 37.587572 4.109747 37.39393 3.991817 37.197222 C 3.873886 37.000986 3.761145 36.801448 3.653121 36.599551 C 3.545096 36.397654 3.442261 36.192927 3.344143 35.985841 C 3.246261 35.77852 3.153332 35.569075 3.065827 35.357508 C 2.977851 35.145941 2.895536 34.932015 2.818174 34.716439 C 2.741283 34.500862 2.669345 34.283162 2.602833 34.063812 C 2.53632 33.844933 2.475232 33.623931 2.419569 33.401751 C 2.363906 33.17957 2.313903 32.955974 2.268854 32.731198 C 2.224276 32.506423 2.185123 32.28094 2.151395 32.054278 C 2.117903 31.82738 2.089835 31.600246 2.067429 31.372169 C 2.045022 31.144091 2.02804 30.915778 2.016719 30.686993 C 2.005633 30.457972 1.999973 30.229187 1.999973 29.999931 C 1.999973 29.770674 2.005633 29.541889 2.016955 29.313104 C 2.02804 29.084083 2.045022 28.85577 2.067429 28.627693 C 2.089835 28.399615 2.117903 28.172482 2.151631 27.945819 C 2.185123 27.718921 2.224276 27.493438 2.268854 27.268663 C 2.313667 27.044124 2.36367 26.820528 2.419569 26.598111 C 2.475232 26.37593 2.53632 26.1554 2.602833 25.93605 C 2.669345 25.716699 2.741047 25.499236 2.818409 25.283659 C 2.895536 25.067846 2.978087 24.854156 3.065827 24.642353 C 3.153332 24.430786 3.246261 24.221342 3.344143 24.01402 C 3.442025 23.80717 3.545096 23.602679 3.653121 23.400311 C 3.761145 23.198414 3.874122 22.999111 3.991817 22.802639 C 4.109511 22.606167 4.231923 22.412526 4.359288 22.22195 C 4.486653 22.031375 4.618499 21.844337 4.755062 21.66013 C 4.89139 21.476158 5.032434 21.295489 5.177725 21.118594 C 5.323251 20.941462 5.472786 20.767869 5.626804 20.598285 C 5.780585 20.428465 5.938612 20.262419 6.100412 20.100618 C 6.262448 19.938582 6.428494 19.780555 6.598314 19.626774 C 6.767898 19.472757 6.941491 19.323221 7.118387 19.177931 C 7.295519 19.032405 7.476188 18.89136 7.660159 18.755033 C 7.844131 18.618705 8.031404 18.486623 8.22198 18.359258 C 8.412319 18.232129 8.605961 18.109718 8.802669 17.991787 C 8.999141 17.874093 9.198443 17.761115 9.40034 17.653091 C 9.602709 17.545067 9.8072 17.441996 10.01405 17.344114 C 10.221371 17.246231 10.430816 17.153302 10.642383 17.065798 C 10.854186 16.978058 11.067876 16.895506 11.283688 16.81838 C 11.499265 16.741018 11.716729 16.669316 11.936079 16.602803 C 12.15543 16.536291 12.375959 16.475203 12.59814 16.419539 C 12.820321 16.363876 13.044153 16.313638 13.268692 16.268824 C 13.493468 16.224247 13.718951 16.185094 13.945849 16.151602 C 14.172511 16.117874 14.399645 16.089806 14.627722 16.067399 C 14.8558 16.044993 15.084113 16.028011 15.313134 16.016925 C 15.541919 16.005604 15.770703 15.999943 15.99996 15.999943 L 36.00001 15.999943 C 36.196246 15.999943 36.392718 16.004896 36.588718 16.014567 C 36.784954 16.024001 36.980719 16.038624 37.176247 16.057729 C 37.37154 16.07707 37.566361 16.101127 37.76071 16.129902 C 37.95506 16.158677 38.148466 16.19217 38.341164 16.230615 C 38.533626 16.268824 38.725381 16.311987 38.915956 16.359631 C 39.106296 16.407511 39.295456 16.459872 39.483438 16.516714 C 39.671183 16.573792 39.857749 16.635352 40.042663 16.701393 C 40.227578 16.767434 40.410842 16.838428 40.591983 16.913432 C 40.773596 16.988436 40.953322 17.068157 41.130689 17.152123 C 41.308056 17.236089 41.483537 17.324301 41.656894 17.416995 C 41.830016 17.509452 42.000779 17.606155 42.169184 17.707103 C 42.337825 17.808288 42.503635 17.913246 42.66685 18.022213 C 42.830302 18.131417 42.990687 18.24463 43.148478 18.361381 C 43.306033 18.478368 43.460993 18.599365 43.612888 18.723899 C 43.764546 18.848669 43.913374 18.976742 44.058901 19.108588 C 44.204191 19.24067 44.346415 19.375818 44.485337 19.51474 C 44.624259 19.653662 44.759407 19.795886 44.891489 19.941177 C 45.023335 20.086703 45.151408 20.235531 45.276178 20.387189 C 45.400712 20.539084 45.521473 20.693808 45.638696 20.851599 C 45.755447 21.00939 45.86866 21.169775 45.977628 21.332991 C 46.086831 21.496442 46.191789 21.662253 46.292738 21.830657 C 46.393686 21.999062 46.490625 22.170061 46.583082 22.343183 C 46.67554 22.516304 46.763752 22.691785 46.847954 22.869388 C 46.931921 23.046755 47.011406 23.226245 47.086409 23.407858 C 47.161649 23.589235 47.232407 23.772263 47.298448 23.957178 C 47.364725 24.142329 47.426049 24.328659 47.483363 24.51664 C 47.540205 24.704621 47.592567 24.893781 47.640446 25.084121 C 47.68809 25.274696 47.731017 25.466215 47.769462 25.658913 C 47.807672 25.851376 47.8414 26.045017 47.870175 26.239367 C 47.898714 26.43348 47.923008 26.628537 47.942348 26.82383 C 47.961453 27.019358 47.97584 27.214887 47.985511 27.411359 C 47.995181 27.607359 47.999898 27.803595 48.000134 28.000067 L 48.000134 35.999993 " stroke="#2563eb" stroke-width="10" stroke-opacity="1" stroke-miterlimit="4"/><path stroke-linecap="round" transform="matrix(-8.280839, -8.280839, 8.280839, -8.280839, 749.847569, 1577.9313)" fill="none" stroke-linejoin="round" d="M 56.000042 43.999929 L 15.999943 43.999929 C 15.770922 44.000165 15.541902 43.994268 15.312881 43.983183 C 15.084096 43.971861 14.855783 43.95488 14.627705 43.932473 C 14.399628 43.910066 14.172494 43.881999 13.945596 43.848506 C 13.71917 43.815014 13.493451 43.775625 13.268675 43.731048 C 13.044136 43.686234 12.82054 43.636232 12.598359 43.580568 C 12.375942 43.524669 12.155177 43.463817 11.936062 43.397069 C 11.716712 43.330556 11.499248 43.258854 11.283435 43.181728 C 11.067859 43.104366 10.854169 43.021814 10.642602 42.93431 C 10.430799 42.84657 10.221354 42.753641 10.014269 42.655994 C 9.807183 42.557876 9.602456 42.455041 9.400559 42.347017 C 9.198426 42.238757 8.998888 42.126015 8.802652 42.008085 C 8.60618 41.89039 8.412538 41.767978 8.221963 41.640614 C 8.031387 41.513249 7.84435 41.381403 7.660142 41.244839 C 7.476171 41.108512 7.295501 40.967467 7.118606 40.822177 C 6.941474 40.676651 6.767881 40.527115 6.598061 40.373334 C 6.428477 40.219317 6.262667 40.061526 6.100631 39.899489 C 5.938595 39.737453 5.780568 39.571407 5.626551 39.401823 C 5.472769 39.232003 5.323234 39.05841 5.177944 38.881514 C 5.032417 38.704383 4.891609 38.523949 4.755045 38.339742 C 4.618718 38.155771 4.486636 37.968497 4.359271 37.777922 C 4.232142 37.587582 4.10973 37.393941 3.9918 37.197233 C 3.873869 37.000996 3.761128 36.801458 3.653104 36.599561 C 3.545079 36.397665 3.442244 36.192937 3.344126 35.985852 C 3.246244 35.77853 3.153315 35.569086 3.06581 35.357519 C 2.97807 35.145716 2.895519 34.932026 2.818157 34.716449 C 2.741266 34.500872 2.669328 34.283173 2.602816 34.063822 C 2.536303 33.844944 2.475215 33.623942 2.419552 33.401761 C 2.363889 33.17958 2.313886 32.955984 2.268837 32.731209 C 2.224259 32.506434 2.185106 32.280951 2.151378 32.054289 C 2.117886 31.827391 2.089818 31.600257 2.067412 31.372179 C 2.045005 31.144102 2.028023 30.915789 2.016702 30.687004 C 2.005616 30.457983 1.999956 30.229198 1.999956 29.999941 C 2.000191 29.77092 2.005616 29.5419 2.016938 29.313115 C 2.028023 29.084094 2.045005 28.855781 2.067412 28.627703 C 2.089818 28.399626 2.117886 28.172492 2.151614 27.94583 C 2.185342 27.719168 2.224259 27.493449 2.268837 27.268674 C 2.31365 27.044134 2.363889 26.820302 2.419552 26.598121 C 2.475215 26.375941 2.536303 26.155411 2.602816 25.93606 C 2.669328 25.71671 2.74103 25.499246 2.818392 25.283669 C 2.895519 25.067857 2.97807 24.854167 3.06581 24.642364 C 3.153315 24.430797 3.246244 24.221352 3.344126 24.014031 C 3.442008 23.807181 3.545079 23.60269 3.653104 23.400321 C 3.761128 23.198424 3.874105 22.999122 3.9918 22.80265 C 4.10973 22.605942 4.232142 22.4123 4.359271 22.221961 C 4.486636 22.031385 4.618482 21.844348 4.755045 21.66014 C 4.891373 21.476169 5.032417 21.2955 5.177944 21.118368 C 5.323234 20.941473 5.472769 20.767879 5.626787 20.598295 C 5.780568 20.428475 5.938595 20.26243 6.100395 20.100629 C 6.262431 19.938593 6.428477 19.780566 6.598297 19.626785 C 6.767881 19.472768 6.941474 19.323232 7.11837 19.177942 C 7.295501 19.032416 7.476171 18.891371 7.660142 18.755043 C 7.84435 18.61848 8.031387 18.486634 8.221963 18.359269 C 8.412302 18.23214 8.605944 18.109728 8.802652 17.991798 C 8.999124 17.874103 9.198426 17.761126 9.400323 17.653102 C 9.602692 17.545078 9.807183 17.442006 10.014033 17.344124 C 10.221354 17.246242 10.430799 17.153313 10.642366 17.065809 C 10.854169 16.978068 11.067859 16.895517 11.283671 16.818391 C 11.499248 16.741028 11.716712 16.669327 11.936062 16.602814 C 12.155413 16.536301 12.375942 16.475213 12.598123 16.41955 C 12.820304 16.363887 13.044136 16.313649 13.268675 16.268835 C 13.493451 16.224257 13.71917 16.18534 13.945832 16.151612 C 14.172494 16.117884 14.399628 16.089817 14.627705 16.06741 C 14.855783 16.045003 15.084096 16.028021 15.313117 16.016936 C 15.541902 16.005614 15.770922 16.00019 15.999943 15.999954 L 35.999993 15.999954 C 36.196229 15.999954 36.392701 16.004907 36.588701 16.014577 C 36.784937 16.024012 36.980702 16.038635 37.17623 16.05774 C 37.371523 16.07708 37.566344 16.101138 37.760693 16.129913 C 37.955043 16.158688 38.148449 16.19218 38.341147 16.230626 C 38.533609 16.268835 38.725364 16.311997 38.915939 16.359641 C 39.106279 16.407521 39.295439 16.459882 39.48342 16.516725 C 39.671402 16.573567 39.857732 16.635363 40.042646 16.701404 C 40.227561 16.767445 40.410825 16.838439 40.591966 16.913442 C 40.773579 16.988446 40.953305 17.068167 41.130672 17.152134 C 41.308039 17.2361 41.48352 17.324312 41.656877 17.417005 C 41.829999 17.509463 42.000762 17.606166 42.169167 17.707114 C 42.337808 17.808298 42.503618 17.913256 42.666833 18.022224 C 42.830285 18.131427 42.99067 18.244641 43.148461 18.361392 C 43.306016 18.478379 43.460976 18.599375 43.612871 18.72391 C 43.764529 18.84868 43.913357 18.976752 44.058884 19.108599 C 44.20441 19.240445 44.346398 19.375829 44.48532 19.514751 C 44.624242 19.653673 44.759626 19.795661 44.891472 19.941187 C 45.023318 20.086713 45.151391 20.235541 45.276161 20.3872 C 45.400695 20.539094 45.521456 20.693819 45.638679 20.85161 C 45.75543 21.009401 45.868643 21.169786 45.977611 21.333002 C 46.086814 21.496453 46.191772 21.662263 46.292721 21.830668 C 46.393669 21.999072 46.490608 22.170071 46.583065 22.343193 C 46.675523 22.516315 46.763735 22.691795 46.847937 22.869399 C 46.931904 23.046766 47.011389 23.226256 47.086392 23.407869 C 47.161632 23.589246 47.23239 23.772274 47.298431 23.957188 C 47.364708 24.142339 47.426268 24.328433 47.483346 24.51665 C 47.540188 24.704631 47.59255 24.893792 47.640429 25.084131 C 47.688073 25.274707 47.731 25.466226 47.769445 25.658924 C 47.807655 25.851386 47.841383 26.045028 47.870158 26.239377 C 47.898933 26.433726 47.92299 26.628547 47.942331 26.82384 C 47.961436 27.019369 47.975823 27.214897 47.985494 27.411369 C 47.995164 27.60737 47.999881 27.803606 48.000117 28.000078 L 48.000117 36.000003 " stroke="#2563eb" stroke-width="10" stroke-opacity="1" stroke-miterlimit="4"/><path stroke-linecap="round" transform="matrix(8.280839, -8.280839, 8.280839, 8.280839, -78.236326, 749.847515)" fill="none" stroke-linejoin="round" d="M 56.00006 43.999953 L 15.99996 43.999953 C 15.770704 43.999953 15.541919 43.994292 15.312898 43.983206 C 15.084113 43.971885 14.8558 43.954903 14.627722 43.932496 C 14.399645 43.91009 14.172511 43.882022 13.945613 43.84853 C 13.718951 43.814802 13.493468 43.775649 13.268693 43.731071 C 13.044153 43.686258 12.820557 43.636255 12.598141 43.580356 C 12.37596 43.524693 12.15543 43.463605 11.936079 43.397092 C 11.716729 43.33058 11.499265 43.258878 11.283453 43.181752 C 11.067876 43.104389 10.854186 43.021838 10.642619 42.934334 C 10.430816 42.846593 10.221372 42.753664 10.014286 42.656018 C 9.8072 42.5579 9.602473 42.455065 9.40034 42.346804 C 9.198443 42.23878 8.998905 42.126039 8.802669 42.008108 C 8.606197 41.890414 8.412555 41.768002 8.22198 41.640637 C 8.031404 41.513273 7.844367 41.381426 7.660159 41.244863 C 7.476188 41.108535 7.295519 40.967491 7.118623 40.8222 C 6.941492 40.676674 6.767898 40.527139 6.598078 40.373357 C 6.428495 40.21934 6.262684 40.061549 6.100648 39.899513 C 5.938612 39.737477 5.780585 39.571431 5.626568 39.401847 C 5.472787 39.232027 5.323251 39.058434 5.177961 38.881538 C 5.032435 38.704407 4.891626 38.523973 4.755062 38.339766 C 4.618735 38.155794 4.486653 37.968521 4.359288 37.777946 C 4.232159 37.587606 4.109747 37.393964 3.991817 37.197256 C 3.873887 37.00102 3.761145 36.801482 3.653121 36.599585 C 3.545097 36.397688 3.442261 36.192961 3.344143 35.985875 C 3.246261 35.778554 3.153332 35.569109 3.065828 35.357542 C 2.978087 35.145739 2.895536 34.932049 2.818174 34.716473 C 2.741047 34.50066 2.669346 34.283197 2.602833 34.063846 C 2.536556 33.844731 2.475232 33.623966 2.419569 33.401785 C 2.363906 33.179604 2.313903 32.956008 2.268854 32.731233 C 2.224276 32.506457 2.185123 32.280974 2.151395 32.054312 C 2.117903 31.827414 2.089836 31.60028 2.067429 31.372203 C 2.045022 31.144126 2.02804 30.915812 2.016719 30.687027 C 2.005633 30.458007 1.999973 30.229222 1.999973 29.999965 C 1.999973 29.770708 2.005633 29.541923 2.016955 29.313138 C 2.02804 29.084118 2.045022 28.855804 2.067429 28.627727 C 2.089836 28.39965 2.117903 28.172516 2.151631 27.945854 C 2.185123 27.718955 2.224276 27.493473 2.268854 27.268697 C 2.313668 27.044158 2.363906 26.820326 2.419569 26.598145 C 2.475232 26.375964 2.53632 26.155434 2.602833 25.936084 C 2.669346 25.716733 2.741047 25.49927 2.81841 25.283693 C 2.895536 25.06788 2.978087 24.854191 3.065828 24.642388 C 3.153332 24.430821 3.246261 24.221376 3.344143 24.014055 C 3.442026 23.807205 3.545097 23.602713 3.653121 23.400345 C 3.761145 23.198448 3.874122 22.999146 3.991817 22.802674 C 4.109747 22.605966 4.232159 22.412324 4.359288 22.221984 C 4.486653 22.031409 4.618735 21.844135 4.755062 21.660164 C 4.89139 21.476193 5.032435 21.295523 5.177961 21.118392 C 5.323251 20.941496 5.472787 20.767903 5.626568 20.598083 C 5.780585 20.428499 5.938612 20.262453 6.100648 20.100417 C 6.262449 19.938616 6.428495 19.78059 6.598078 19.626573 C 6.767898 19.472791 6.941492 19.323256 7.118387 19.177965 C 7.295519 19.032439 7.476188 18.891395 7.660159 18.755067 C 7.844367 18.618504 8.031404 18.486657 8.22198 18.359293 C 8.412319 18.232164 8.606197 18.109516 8.802669 17.991822 C 8.999141 17.874127 9.198443 17.76115 9.40034 17.653125 C 9.602709 17.545101 9.8072 17.44203 10.01405 17.344148 C 10.221372 17.246266 10.430816 17.153337 10.642383 17.065832 C 10.854186 16.978092 11.067876 16.895541 11.283688 16.818414 C 11.499265 16.741052 11.716729 16.66935 11.936079 16.602838 C 12.15543 16.536325 12.37596 16.475237 12.598141 16.419574 C 12.820321 16.363911 13.044153 16.313672 13.268693 16.268859 C 13.493468 16.224281 13.718951 16.185128 13.945849 16.151636 C 14.172511 16.117908 14.399645 16.08984 14.627722 16.067434 C 14.8558 16.045027 15.084113 16.028045 15.313134 16.016959 C 15.541919 16.005638 15.770704 15.999977 15.99996 15.999977 L 36.00001 15.999977 C 36.196246 15.999977 36.392718 16.00493 36.588954 16.014365 C 36.784955 16.024035 36.980719 16.038659 37.176248 16.057763 C 37.37154 16.077104 37.566361 16.101162 37.760711 16.129937 C 37.95506 16.158712 38.148466 16.192204 38.341164 16.230649 C 38.533626 16.268859 38.725145 16.311785 38.915721 16.359429 C 39.10606 16.407309 39.295457 16.459906 39.483438 16.516748 C 39.671419 16.573591 39.857749 16.635386 40.042664 16.701427 C 40.227578 16.767468 40.410606 16.838227 40.591983 16.913466 C 40.773596 16.98847 40.953322 17.068191 41.130689 17.152157 C 41.308057 17.236124 41.483537 17.324336 41.656895 17.417029 C 41.830017 17.509486 42.00078 17.606189 42.169184 17.707138 C 42.337589 17.808086 42.503635 17.91328 42.666851 18.022248 C 42.830302 18.131451 42.990687 18.244664 43.148478 18.361415 C 43.306033 18.478402 43.460994 18.599399 43.612888 18.723933 C 43.764311 18.848468 43.913139 18.97654 44.058665 19.108386 C 44.204427 19.240468 44.346415 19.375853 44.485337 19.514775 C 44.624259 19.653697 44.759643 19.795685 44.891489 19.941211 C 45.023335 20.086737 45.151408 20.235565 45.276178 20.387224 C 45.400713 20.539118 45.521473 20.693843 45.63846 20.851398 C 45.755447 21.009424 45.86866 21.16981 45.977628 21.333025 C 46.086832 21.496477 46.19179 21.662287 46.292738 21.830691 C 46.393687 21.999096 46.490625 22.170095 46.583083 22.343217 C 46.67554 22.516339 46.763752 22.691819 46.847954 22.869422 C 46.931921 23.04679 47.011406 23.22628 47.08641 23.407892 C 47.161649 23.589269 47.232407 23.772297 47.298448 23.957212 C 47.364725 24.142363 47.426285 24.328457 47.483363 24.516674 C 47.540206 24.704655 47.592567 24.893815 47.640447 25.084155 C 47.68809 25.27473 47.731017 25.466249 47.769462 25.658948 C 47.807672 25.85141 47.8414 26.045052 47.870175 26.239401 C 47.898714 26.433514 47.922772 26.628335 47.942348 26.823864 C 47.961453 27.019392 47.975841 27.214921 47.985747 27.411157 C 47.995181 27.607393 47.999898 27.80363 48.000134 28.000102 L 48.000134 36.000027 " stroke="#2563eb" stroke-width="10" stroke-opacity="1" stroke-miterlimit="4"/><g clip-path="url(#f4e3b25a73)"><g clip-path="url(#fdec101257)"><g transform="matrix(1, 0, 0, 1, 654, 654)"><g clip-path="url(#6216ec07c8)"><g clip-path="url(#fcd97e96a9)"><g clip-path="url(#80ca39b097)"><path fill="#ffffff" d="M 0.382812 0.382812 L 191.617188 0.382812 L 191.617188 191.617188 L 0.382812 191.617188 Z M 0.382812 0.382812 " fill-opacity="1" fill-rule="nonzero"/></g></g></g></g></g></g></svg>