<svg xmlns="http://www.w3.org/2000/svg" xmlns:xlink="http://www.w3.org/1999/xlink" width="2000" zoomAndPan="magnify" viewBox="0 0 1500 1499.999933" height="2000" preserveAspectRatio="xMidYMid meet" version="1.0"><defs><clipPath id="94e729f7d6"><path d="M 637.5 637.5 L 862.5 637.5 L 862.5 862.5 L 637.5 862.5 Z M 637.5 637.5 " clip-rule="nonzero"/></clipPath><clipPath id="5c66da5231"><path d="M 750 637.5 C 687.867188 637.5 637.5 687.867188 637.5 750 C 637.5 812.132812 687.867188 862.5 750 862.5 C 812.132812 862.5 862.5 812.132812 862.5 750 C 862.5 687.867188 812.132812 637.5 750 637.5 Z M 750 637.5 " clip-rule="nonzero"/></clipPath><clipPath id="f4fb89be14"><path d="M 0.5 0.5 L 225.5 0.5 L 225.5 225.5 L 0.5 225.5 Z M 0.5 0.5 " clip-rule="nonzero"/></clipPath><clipPath id="20f10a4fe3"><path d="M 113 0.5 C 50.867188 0.5 0.5 50.867188 0.5 113 C 0.5 175.132812 50.867188 225.5 113 225.5 C 175.132812 225.5 225.5 175.132812 225.5 113 C 225.5 50.867188 175.132812 0.5 113 0.5 Z M 113 0.5 " clip-rule="nonzero"/></clipPath><clipPath id="c355cb095e"><rect x="0" width="226" y="0" height="226"/></clipPath></defs><path fill="#2563eb" d="M 330 0 L 1170 0 C 1175.402344 0 1180.796875 0.132812 1186.191406 0.398438 C 1191.585938 0.664062 1196.972656 1.058594 1202.34375 1.589844 C 1207.71875 2.117188 1213.078125 2.777344 1218.421875 3.570312 C 1223.761719 4.363281 1229.082031 5.289062 1234.378906 6.339844 C 1239.675781 7.394531 1244.945312 8.578125 1250.183594 9.890625 C 1255.421875 11.203125 1260.625 12.640625 1265.792969 14.210938 C 1270.960938 15.777344 1276.089844 17.472656 1281.171875 19.289062 C 1286.257812 21.109375 1291.296875 23.054688 1296.285156 25.121094 C 1301.273438 27.1875 1306.210938 29.375 1311.09375 31.683594 C 1315.976562 33.992188 1320.796875 36.421875 1325.5625 38.964844 C 1330.324219 41.511719 1335.019531 44.171875 1339.652344 46.949219 C 1344.285156 49.726562 1348.847656 52.613281 1353.339844 55.613281 C 1357.828125 58.617188 1362.242188 61.722656 1366.582031 64.941406 C 1370.917969 68.160156 1375.175781 71.480469 1379.351562 74.90625 C 1383.523438 78.332031 1387.613281 81.859375 1391.613281 85.484375 C 1395.617188 89.113281 1399.527344 92.835938 1403.34375 96.65625 C 1407.164062 100.472656 1410.886719 104.382812 1414.515625 108.386719 C 1418.140625 112.386719 1421.667969 116.476562 1425.09375 120.648438 C 1428.519531 124.824219 1431.839844 129.082031 1435.058594 133.417969 C 1438.277344 137.757812 1441.382812 142.171875 1444.382812 146.660156 C 1447.386719 151.152344 1450.273438 155.714844 1453.050781 160.347656 C 1455.828125 164.976562 1458.488281 169.675781 1461.035156 174.4375 C 1463.578125 179.203125 1466.007812 184.023438 1468.316406 188.90625 C 1470.625 193.789062 1472.8125 198.726562 1474.878906 203.714844 C 1476.945312 208.703125 1478.890625 213.742188 1480.710938 218.828125 C 1482.527344 223.910156 1484.222656 229.039062 1485.789062 234.207031 C 1487.359375 239.375 1488.796875 244.578125 1490.109375 249.816406 C 1491.421875 255.054688 1492.605469 260.324219 1493.660156 265.621094 C 1494.710938 270.917969 1495.636719 276.238281 1496.429688 281.578125 C 1497.21875 286.921875 1497.882812 292.28125 1498.410156 297.652344 C 1498.941406 303.027344 1499.335938 308.414062 1499.601562 313.808594 C 1499.867188 319.203125 1500 324.597656 1500 330 L 1500 1170 C 1500 1175.402344 1499.867188 1180.796875 1499.601562 1186.191406 C 1499.335938 1191.585938 1498.941406 1196.972656 1498.410156 1202.34375 C 1497.882812 1207.71875 1497.21875 1213.078125 1496.429688 1218.421875 C 1495.636719 1223.761719 1494.710938 1229.082031 1493.660156 1234.378906 C 1492.605469 1239.675781 1491.421875 1244.945312 1490.109375 1250.183594 C 1488.796875 1255.421875 1487.359375 1260.625 1485.789062 1265.792969 C 1484.222656 1270.960938 1482.527344 1276.089844 1480.710938 1281.171875 C 1478.890625 1286.257812 1476.945312 1291.296875 1474.878906 1296.285156 C 1472.8125 1301.273438 1470.625 1306.210938 1468.316406 1311.09375 C 1466.007812 1315.976562 1463.578125 1320.796875 1461.035156 1325.5625 C 1458.488281 1330.324219 1455.828125 1335.019531 1453.050781 1339.652344 C 1450.273438 1344.285156 1447.386719 1348.847656 1444.382812 1353.335938 C 1441.382812 1357.828125 1438.277344 1362.242188 1435.058594 1366.582031 C 1431.839844 1370.917969 1428.519531 1375.175781 1425.09375 1379.351562 C 1421.667969 1383.523438 1418.140625 1387.613281 1414.515625 1391.613281 C 1410.886719 1395.617188 1407.164062 1399.527344 1403.34375 1403.34375 C 1399.527344 1407.164062 1395.617188 1410.886719 1391.613281 1414.511719 C 1387.613281 1418.140625 1383.523438 1421.667969 1379.351562 1425.09375 C 1375.175781 1428.519531 1370.917969 1431.839844 1366.582031 1435.058594 C 1362.242188 1438.273438 1357.828125 1441.382812 1353.339844 1444.382812 C 1348.847656 1447.386719 1344.285156 1450.273438 1339.652344 1453.050781 C 1335.019531 1455.828125 1330.324219 1458.488281 1325.5625 1461.035156 C 1320.796875 1463.578125 1315.976562 1466.007812 1311.09375 1468.316406 C 1306.210938 1470.625 1301.273438 1472.8125 1296.285156 1474.878906 C 1291.296875 1476.945312 1286.257812 1478.890625 1281.171875 1480.710938 C 1276.089844 1482.527344 1270.960938 1484.222656 1265.792969 1485.789062 C 1260.625 1487.359375 1255.421875 1488.796875 1250.183594 1490.109375 C 1244.945312 1491.421875 1239.675781 1492.605469 1234.378906 1493.660156 C 1229.082031 1494.710938 1223.761719 1495.636719 1218.421875 1496.429688 C 1213.078125 1497.21875 1207.71875 1497.882812 1202.34375 1498.410156 C 1196.972656 1498.941406 1191.585938 1499.335938 1186.191406 1499.601562 C 1180.796875 1499.867188 1175.402344 1500 1170 1500 L 330 1500 C 324.597656 1500 319.203125 1499.867188 313.808594 1499.601562 C 308.414062 1499.335938 303.027344 1498.941406 297.65625 1498.410156 C 292.28125 1497.882812 286.921875 1497.21875 281.578125 1496.429688 C 276.238281 1495.636719 270.917969 1494.710938 265.621094 1493.660156 C 260.324219 1492.605469 255.054688 1491.421875 249.816406 1490.109375 C 244.578125 1488.796875 239.375 1487.359375 234.207031 1485.789062 C 229.039062 1484.222656 223.910156 1482.527344 218.828125 1480.710938 C 213.742188 1478.890625 208.703125 1476.945312 203.714844 1474.878906 C 198.726562 1472.8125 193.789062 1470.625 188.90625 1468.316406 C 184.023438 1466.007812 179.203125 1463.578125 174.4375 1461.035156 C 169.675781 1458.488281 164.976562 1455.828125 160.347656 1453.050781 C 155.714844 1450.273438 151.152344 1447.386719 146.660156 1444.382812 C 142.171875 1441.382812 137.757812 1438.273438 133.417969 1435.058594 C 129.082031 1431.839844 124.824219 1428.519531 120.648438 1425.09375 C 116.476562 1421.667969 112.386719 1418.140625 108.386719 1414.511719 C 104.382812 1410.886719 100.472656 1407.164062 96.65625 1403.34375 C 92.835938 1399.527344 89.113281 1395.617188 85.484375 1391.613281 C 81.859375 1387.613281 78.332031 1383.523438 74.90625 1379.351562 C 71.480469 1375.175781 68.160156 1370.917969 64.941406 1366.582031 C 61.722656 1362.242188 58.617188 1357.828125 55.613281 1353.335938 C 52.613281 1348.847656 49.726562 1344.285156 46.949219 1339.652344 C 44.171875 1335.019531 41.511719 1330.324219 38.964844 1325.5625 C 36.421875 1320.796875 33.992188 1315.976562 31.683594 1311.09375 C 29.375 1306.210938 27.1875 1301.273438 25.121094 1296.285156 C 23.054688 1291.296875 21.109375 1286.257812 19.289062 1281.171875 C 17.472656 1276.089844 15.777344 1270.960938 14.210938 1265.792969 C 12.640625 1260.625 11.203125 1255.421875 9.890625 1250.183594 C 8.578125 1244.945312 7.394531 1239.675781 6.339844 1234.378906 C 5.289062 1229.082031 4.363281 1223.761719 3.570312 1218.421875 C 2.78125 1213.078125 2.117188 1207.71875 1.589844 1202.34375 C 1.058594 1196.972656 0.664062 1191.585938 0.398438 1186.191406 C 0.132812 1180.796875 0 1175.402344 0 1170 L 0 330 C 0 324.597656 0.132812 319.203125 0.398438 313.808594 C 0.664062 308.414062 1.058594 303.027344 1.589844 297.652344 C 2.117188 292.28125 2.78125 286.921875 3.570312 281.578125 C 4.363281 276.238281 5.289062 270.917969 6.339844 265.621094 C 7.394531 260.324219 8.578125 255.054688 9.890625 249.816406 C 11.203125 244.578125 12.640625 239.375 14.210938 234.207031 C 15.777344 229.039062 17.472656 223.910156 19.289062 218.828125 C 21.109375 213.742188 23.054688 208.703125 25.121094 203.714844 C 27.1875 198.726562 29.375 193.789062 31.683594 188.90625 C 33.992188 184.023438 36.421875 179.203125 38.964844 174.4375 C 41.511719 169.675781 44.171875 164.976562 46.949219 160.347656 C 49.726562 155.714844 52.613281 151.152344 55.613281 146.660156 C 58.617188 142.171875 61.722656 137.757812 64.941406 133.417969 C 68.160156 129.082031 71.480469 124.824219 74.90625 120.648438 C 78.332031 116.476562 81.859375 112.386719 85.484375 108.386719 C 89.113281 104.382812 92.835938 100.472656 96.65625 96.65625 C 100.472656 92.835938 104.382812 89.113281 108.386719 85.484375 C 112.386719 81.859375 116.476562 78.332031 120.648438 74.90625 C 124.824219 71.480469 129.082031 68.160156 133.417969 64.941406 C 137.757812 61.722656 142.171875 58.617188 146.660156 55.613281 C 151.152344 52.613281 155.714844 49.726562 160.347656 46.949219 C 164.976562 44.171875 169.675781 41.511719 174.4375 38.964844 C 179.203125 36.421875 184.023438 33.992188 188.90625 31.683594 C 193.789062 29.375 198.726562 27.1875 203.714844 25.121094 C 208.703125 23.054688 213.742188 21.109375 218.828125 19.289062 C 223.910156 17.472656 229.039062 15.777344 234.207031 14.210938 C 239.375 12.640625 244.578125 11.203125 249.816406 9.890625 C 255.054688 8.578125 260.324219 7.394531 265.621094 6.339844 C 270.917969 5.289062 276.238281 4.363281 281.578125 3.570312 C 286.921875 2.777344 292.28125 2.117188 297.65625 1.589844 C 303.027344 1.058594 308.414062 0.664062 313.808594 0.398438 C 319.203125 0.132812 324.597656 0 330 0 Z M 330 0 " fill-opacity="1" fill-rule="nonzero"/><path stroke-linecap="round" transform="matrix(7.424621, 7.424621, -7.424621, 7.424621, 749.999969, 7.537872)" fill="none" stroke-linejoin="round" d="M 55.99989 44.000115 L 15.999952 44.000115 C 15.770827 43.999852 15.541701 43.994328 15.313101 43.983016 C 15.084238 43.971968 14.855902 43.955132 14.627828 43.932772 C 14.399755 43.909885 14.17247 43.882001 13.945712 43.848329 C 13.719217 43.81492 13.493248 43.775724 13.268594 43.731004 C 13.043941 43.686284 12.820602 43.636039 12.598316 43.580534 C 12.375767 43.524765 12.155322 43.463735 11.936193 43.39718 C 11.716537 43.330626 11.499512 43.25881 11.283539 43.181734 C 11.06783 43.104394 10.853961 43.022056 10.642461 42.934194 C 10.430697 42.846595 10.221301 42.753997 10.014272 42.655876 C 9.80698 42.558017 9.602319 42.454897 9.400552 42.346779 C 9.198521 42.238925 8.999121 42.125809 8.802615 42.00822 C 8.605846 41.890369 8.412496 41.768046 8.22204 41.640725 C 8.031585 41.513404 7.844285 41.381347 7.660143 41.245082 C 7.476264 41.108553 7.295804 40.967553 7.118501 40.822343 C 6.941462 40.676871 6.768105 40.527189 6.598168 40.373562 C 6.42823 40.219409 6.262502 40.061572 6.100457 39.899527 C 5.938412 39.737482 5.780575 39.571753 5.626685 39.402079 C 5.472794 39.231879 5.323113 39.058522 5.17764 38.881483 C 5.032694 38.704443 4.891431 38.52372 4.754902 38.339841 C 4.618637 38.155698 4.48658 37.968399 4.359259 37.777943 C 4.231938 37.587488 4.109615 37.394138 3.991763 37.197369 C 3.874175 37.000863 3.761059 36.801463 3.653204 36.599432 C 3.545087 36.397665 3.441967 36.193004 3.344108 35.985712 C 3.245987 35.778683 3.153389 35.569287 3.06579 35.357523 C 2.977928 35.146022 2.89559 34.932154 2.81825 34.716445 C 2.741436 34.500735 2.669358 34.283447 2.602804 34.063791 C 2.536249 33.844662 2.475219 33.624217 2.41945 33.401668 C 2.363945 33.179382 2.3137 32.956043 2.26898 32.731389 C 2.224259 32.506736 2.185063 32.280767 2.151655 32.054272 C 2.117983 31.827513 2.090099 31.600229 2.067475 31.372419 C 2.044852 31.144082 2.028016 30.915745 2.016968 30.686883 C 2.005656 30.458283 2.000132 30.229157 1.999869 30.000032 C 2.000132 29.770906 2.005656 29.54178 2.016968 29.31318 C 2.028016 29.084318 2.045115 28.855718 2.067475 28.627645 C 2.089835 28.399571 2.117983 28.17255 2.151655 27.945792 C 2.185063 27.719296 2.224259 27.493327 2.26898 27.268674 C 2.3137 27.04402 2.363945 26.820682 2.41945 26.598395 C 2.475219 26.375846 2.536249 26.155401 2.603067 25.936009 C 2.669358 25.716616 2.741173 25.499065 2.81825 25.283619 C 2.89559 25.067909 2.977928 24.854041 3.06579 24.64254 C 3.153389 24.430776 3.245987 24.22138 3.344108 24.014351 C 3.441967 23.80706 3.545087 23.602399 3.652941 23.400368 C 3.761322 23.198338 3.873912 22.998938 3.991763 22.802694 C 4.109615 22.605925 4.231938 22.412576 4.359522 22.221857 C 4.486843 22.031401 4.618637 21.844365 4.754902 21.660222 C 4.891694 21.47608 5.032694 21.29562 5.177903 21.118318 C 5.323113 20.941541 5.473057 20.767921 5.626685 20.597984 C 5.780575 20.42831 5.938412 20.262582 6.100457 20.100536 C 6.262502 19.938491 6.428493 19.780392 6.598168 19.626501 C 6.768105 19.472874 6.941462 19.323192 7.118501 19.17772 C 7.295804 19.03251 7.476264 18.89151 7.660143 18.754981 C 7.844285 18.618716 8.031585 18.48666 8.22204 18.359338 C 8.412496 18.232017 8.606109 18.109431 8.802615 17.991843 C 8.998858 17.873992 9.198521 17.761139 9.400289 17.653021 C 9.602319 17.545166 9.80698 17.442046 10.014272 17.344188 C 10.221301 17.246066 10.430697 17.153469 10.642461 17.065869 C 10.853961 16.978007 11.06783 16.895669 11.283539 16.818329 C 11.499249 16.74099 11.7168 16.669174 11.936193 16.602883 C 12.155322 16.536329 12.37603 16.475035 12.598316 16.41953 C 12.820602 16.364024 13.043941 16.313779 13.268594 16.269059 C 13.493248 16.224339 13.719217 16.185143 13.945975 16.151471 C 14.17247 16.118062 14.399755 16.089652 14.627828 16.067292 C 14.855902 16.044931 15.084238 16.028096 15.313101 16.017047 C 15.541964 16.005472 15.77109 15.999948 15.999952 15.999948 L 35.999921 15.999948 C 36.196428 16.000211 36.392671 16.004946 36.588914 16.014416 C 36.784894 16.02415 36.980874 16.038618 37.176328 16.057821 C 37.371782 16.077025 37.566447 16.101226 37.760849 16.1299 C 37.954987 16.158837 38.148337 16.192245 38.340897 16.230652 C 38.533721 16.268796 38.725229 16.311938 38.915948 16.359552 C 39.106404 16.407429 39.295544 16.459778 39.483369 16.516599 C 39.671458 16.573683 39.857705 16.635239 40.042636 16.701268 C 40.227568 16.767822 40.410658 16.838322 40.59217 16.913557 C 40.773681 16.988793 40.953089 17.068237 41.130655 17.152153 C 41.308221 17.23607 41.483419 17.324458 41.656776 17.416792 C 41.82987 17.50939 42.000859 17.606196 42.169218 17.707211 C 42.337577 17.808226 42.503568 17.913188 42.666928 18.022358 C 42.830289 18.131528 42.990756 18.244644 43.148329 18.361706 C 43.306166 18.478505 43.461108 18.59925 43.612631 18.72394 C 43.764417 18.848368 43.913309 18.976741 44.058782 19.108535 C 44.204254 19.240328 44.34657 19.375804 44.485466 19.5147 C 44.624362 19.653596 44.759575 19.795649 44.891369 19.941122 C 45.023425 20.086857 45.151535 20.235486 45.275963 20.387272 C 45.400917 20.539058 45.521399 20.693738 45.638461 20.851837 C 45.755523 21.00941 45.868639 21.169877 45.977809 21.333238 C 46.086716 21.496336 46.191677 21.662327 46.292692 21.830686 C 46.393707 21.999044 46.490514 22.170034 46.583111 22.343128 C 46.675445 22.516485 46.763834 22.691683 46.84775 22.869249 C 46.931666 23.046815 47.011374 23.226485 47.086609 23.407997 C 47.161581 23.589246 47.232345 23.772599 47.298636 23.957267 C 47.364664 24.142199 47.42622 24.328446 47.483304 24.516534 C 47.540388 24.704622 47.592738 24.893763 47.640615 25.084219 C 47.687965 25.274675 47.731107 25.466183 47.769251 25.659006 C 47.807658 25.851566 47.84133 26.045179 47.870266 26.239318 C 47.89894 26.433719 47.923142 26.628384 47.942345 26.823838 C 47.961548 27.019292 47.975754 27.215009 47.985487 27.410989 C 47.99522 27.607496 47.999955 27.803739 47.999955 27.999982 L 47.999955 36.00018 " stroke="#ffffff" stroke-width="10" stroke-opacity="1" stroke-miterlimit="4"/><path stroke-linecap="round" transform="matrix(-7.424621, 7.424621, -7.424621, -7.424621, 1492.462057, 749.999915)" fill="none" stroke-linejoin="round" d="M 55.999889 44.000107 L 15.999951 44.000107 C 15.770825 43.999844 15.5417 43.994319 15.3131 43.983008 C 15.084237 43.971959 14.855901 43.955123 14.627827 43.932763 C 14.399754 43.909877 14.172469 43.881993 13.945711 43.848321 C 13.719216 43.814912 13.493247 43.775716 13.268593 43.730996 C 13.043939 43.686275 12.820601 43.636031 12.598315 43.580525 C 12.376029 43.525019 12.155321 43.463726 11.936191 43.397172 C 11.716536 43.330618 11.499511 43.258802 11.283538 43.181725 C 11.067828 43.104385 10.85396 43.022048 10.642459 42.934185 C 10.430696 42.846586 10.2213 42.753989 10.014271 42.655867 C 9.806979 42.558009 9.602318 42.454889 9.400551 42.346771 C 9.19852 42.238916 8.99912 42.1258 8.802614 42.008212 C 8.605845 41.890361 8.412495 41.768038 8.222039 41.640716 C 8.031583 41.513395 7.844284 41.381339 7.660142 41.245073 C 7.476262 41.108545 7.295803 40.967544 7.1185 40.822335 C 6.94146 40.676863 6.768103 40.527181 6.598166 40.373554 C 6.428229 40.2194 6.262501 40.061564 6.100456 39.899519 C 5.93841 39.737473 5.780574 39.571745 5.626684 39.402071 C 5.472793 39.231871 5.323112 39.058514 5.177639 38.881474 C 5.032693 38.704434 4.891429 38.523712 4.754901 38.339832 C 4.618636 38.15569 4.486579 37.968391 4.359258 37.777935 C 4.231936 37.587479 4.109613 37.39413 3.991762 37.19736 C 3.874174 37.000854 3.761058 36.801454 3.653203 36.599424 C 3.545085 36.397656 3.441966 36.192995 3.344107 35.985703 C 3.245985 35.778675 3.153388 35.569279 3.065789 35.357515 C 2.977927 35.146014 2.895589 34.932146 2.818249 34.716436 C 2.741435 34.500726 2.669357 34.283438 2.602802 34.063783 C 2.536248 33.844653 2.475218 33.624209 2.419449 33.401659 C 2.363943 33.179373 2.313699 32.956035 2.268978 32.731381 C 2.224258 32.506727 2.185062 32.280758 2.151653 32.054263 C 2.117982 31.827505 2.089834 31.600484 2.067474 31.37241 C 2.044851 31.144074 2.028015 30.915737 2.016966 30.686874 C 2.005655 30.458275 2.000131 30.229149 1.999868 30.000023 C 2.000131 29.770897 2.005655 29.541772 2.016966 29.313172 C 2.028015 29.084309 2.045114 28.85571 2.067474 28.627636 C 2.089834 28.399563 2.117982 28.172541 2.151653 27.945783 C 2.185062 27.719288 2.224258 27.493319 2.268978 27.268665 C 2.313699 27.044012 2.363943 26.820673 2.419449 26.598387 C 2.475218 26.375838 2.536248 26.155393 2.603065 25.936 C 2.669357 25.716608 2.741172 25.499057 2.818249 25.28361 C 2.895589 25.067901 2.977927 24.854032 3.065789 24.642532 C 3.153388 24.430768 3.245985 24.221372 3.344107 24.014343 C 3.441966 23.807051 3.545085 23.60239 3.65294 23.40036 C 3.761321 23.198329 3.873911 22.998929 3.991762 22.802686 C 4.109613 22.605917 4.231936 22.412567 4.359521 22.221848 C 4.486842 22.031392 4.618636 21.844356 4.754901 21.660214 C 4.891692 21.476072 5.032693 21.295612 5.177902 21.118309 C 5.323112 20.941532 5.472793 20.768176 5.626684 20.597975 C 5.780574 20.428301 5.93841 20.262573 6.100456 20.100528 C 6.262501 19.938483 6.428492 19.780383 6.598166 19.626493 C 6.768103 19.472865 6.94146 19.323184 7.1185 19.177711 C 7.295803 19.032502 7.476262 18.891501 7.660142 18.754973 C 7.844284 18.618708 8.031583 18.486651 8.222039 18.35933 C 8.412495 18.232009 8.606108 18.109422 8.802614 17.991834 C 8.998857 17.873983 9.19852 17.76113 9.400287 17.653012 C 9.602318 17.545157 9.806979 17.442038 10.014271 17.344179 C 10.2213 17.246058 10.430696 17.15346 10.642459 17.065861 C 10.85396 16.977999 11.067828 16.895661 11.283538 16.818321 C 11.499248 16.740981 11.716799 16.669166 11.936191 16.602874 C 12.155321 16.53632 12.376029 16.475027 12.598315 16.419521 C 12.820601 16.364015 13.043939 16.313771 13.268593 16.269051 C 13.493247 16.22433 13.719216 16.185134 13.945711 16.151726 C 14.172469 16.118054 14.399754 16.089643 14.627827 16.067283 C 14.855901 16.044923 15.084237 16.028087 15.3131 16.017039 C 15.541963 16.005464 15.770825 16.000203 15.999951 15.99994 L 35.99992 15.99994 C 36.196426 16.000203 36.392669 16.004938 36.588913 16.014408 C 36.784893 16.024141 36.980873 16.03861 37.176327 16.057813 C 37.371781 16.077016 37.566446 16.101218 37.760848 16.129892 C 37.954986 16.158828 38.148336 16.192237 38.340896 16.230644 C 38.533719 16.268788 38.725228 16.311929 38.915683 16.359807 C 39.106402 16.40742 39.295543 16.45977 39.483368 16.516591 C 39.671456 16.573675 39.857703 16.635231 40.042635 16.701259 C 40.227566 16.767813 40.410657 16.838314 40.592168 16.913549 C 40.77368 16.988784 40.953088 17.068229 41.130653 17.152145 C 41.308219 17.236061 41.483418 17.32445 41.656775 17.416784 C 41.829868 17.509381 42.000858 17.606188 42.169217 17.707203 C 42.337575 17.808218 42.503567 17.913179 42.666927 18.022349 C 42.830288 18.131519 42.990755 18.244636 43.148328 18.361697 C 43.306164 18.478496 43.461107 18.599241 43.61263 18.723932 C 43.764416 18.84836 43.913308 18.976733 44.058781 19.108526 C 44.204253 19.24032 44.346569 19.375796 44.485465 19.514692 C 44.624361 19.653588 44.759574 19.795641 44.891367 19.941113 C 45.023424 20.086849 45.151534 20.235478 45.275962 20.387264 C 45.400916 20.53905 45.521397 20.693729 45.638459 20.851829 C 45.755521 21.009402 45.868637 21.169869 45.977807 21.33323 C 46.086715 21.496327 46.191676 21.662318 46.292691 21.830677 C 46.393706 21.999036 46.490513 22.170025 46.58311 22.343119 C 46.675444 22.516476 46.763832 22.691674 46.847749 22.86924 C 46.931665 23.046806 47.011372 23.226477 47.086608 23.407988 C 47.16158 23.589237 47.232343 23.77259 47.298635 23.957259 C 47.364663 24.14219 47.426219 24.328437 47.483303 24.516526 C 47.540387 24.704614 47.592736 24.893754 47.64035 25.084473 C 47.687964 25.274666 47.731106 25.466174 47.76925 25.658998 C 47.807657 25.851558 47.841329 26.045171 47.870265 26.239309 C 47.898939 26.433711 47.92314 26.628376 47.942344 26.82383 C 47.961547 27.019284 47.975753 27.215001 47.985486 27.410981 C 47.995219 27.607487 47.999954 27.80373 47.999954 27.999974 L 47.999954 36.000172 " stroke="#ffffff" stroke-width="10" stroke-opacity="1" stroke-miterlimit="4"/><path stroke-linecap="round" transform="matrix(-7.424621, -7.424621, 7.424621, -7.424621, 749.999969, 1492.462003)" fill="none" stroke-linejoin="round" d="M 55.999878 44.000111 L 15.99994 44.000111 C 15.770814 43.999848 15.541688 43.994324 15.313089 43.983012 C 15.084226 43.971963 14.855889 43.955128 14.627816 43.932767 C 14.399742 43.909881 14.172458 43.881997 13.9457 43.848325 C 13.719205 43.814916 13.493235 43.77572 13.268582 43.731 C 13.043928 43.68628 12.82059 43.636035 12.598303 43.580529 C 12.37628 43.52476 12.155309 43.46373 11.93618 43.397176 C 11.716787 43.330885 11.499499 43.258806 11.283527 43.181729 C 11.067817 43.10439 10.853949 43.022052 10.642448 42.93419 C 10.430684 42.84659 10.221288 42.753993 10.014259 42.655871 C 9.807231 42.55775 9.602307 42.454893 9.400539 42.346775 C 9.198509 42.23892 8.999109 42.125804 8.802602 42.008216 C 8.605833 41.890365 8.412484 41.768042 8.222028 41.640721 C 8.031572 41.513399 7.844273 41.381343 7.66013 41.245078 C 7.476251 41.108549 7.295792 40.967549 7.118489 40.822339 C 6.941449 40.676867 6.768092 40.527185 6.598418 40.373295 C 6.428218 40.219404 6.26249 40.061568 6.100444 39.899523 C 5.938399 39.737477 5.780563 39.571749 5.626672 39.402075 C 5.472782 39.231875 5.3231 39.058518 5.177628 38.881478 C 5.032681 38.704439 4.891418 38.523716 4.754889 38.339837 C 4.618624 38.155694 4.486568 37.968395 4.359246 37.777939 C 4.231925 37.587483 4.109602 37.394134 3.991751 37.197365 C 3.874163 37.000858 3.761047 36.801458 3.653192 36.599428 C 3.545074 36.39766 3.442217 36.192736 3.344096 35.985708 C 3.245974 35.778679 3.153377 35.569283 3.065778 35.357519 C 2.977915 35.146018 2.895577 34.93215 2.818238 34.71644 C 2.741424 34.500731 2.669345 34.283443 2.602791 34.063787 C 2.536237 33.844658 2.475207 33.624213 2.419438 33.401664 C 2.363932 33.179377 2.313687 32.956039 2.268967 32.731385 C 2.224247 32.506732 2.185051 32.280763 2.151642 32.054267 C 2.11797 31.827509 2.090086 31.600225 2.067463 31.372414 C 2.044839 31.144078 2.028004 30.915741 2.016955 30.686879 C 2.005643 30.458279 2.000119 30.229153 1.999856 30.000027 C 2.000119 29.770902 2.005643 29.541776 2.016955 29.313176 C 2.028004 29.084314 2.045103 28.855714 2.067463 28.62764 C 2.089823 28.399567 2.11797 28.172546 2.151642 27.945787 C 2.185051 27.719292 2.224247 27.493323 2.268967 27.26867 C 2.313687 27.044016 2.363932 26.820677 2.419438 26.598391 C 2.475207 26.375842 2.536237 26.155397 2.603054 25.936005 C 2.669345 25.716612 2.741161 25.499061 2.818238 25.283614 C 2.895577 25.067905 2.977915 24.854037 3.065778 24.642536 C 3.153377 24.430772 3.245974 24.221376 3.344096 24.014347 C 3.441954 23.807055 3.545074 23.602394 3.652929 23.400364 C 3.76131 23.198333 3.8739 22.998933 3.991751 22.80269 C 4.109602 22.605921 4.231925 22.412571 4.359509 22.221852 C 4.486831 22.031397 4.618624 21.844361 4.754889 21.660218 C 4.891681 21.476076 5.032681 21.295616 5.177891 21.118313 C 5.3231 20.941537 5.473045 20.767917 5.626672 20.59798 C 5.780563 20.428306 5.938399 20.262577 6.100444 20.100532 C 6.26249 19.938487 6.428481 19.780387 6.598155 19.626497 C 6.768092 19.47287 6.941449 19.323188 7.118489 19.177716 C 7.295792 19.032506 7.476251 18.891506 7.66013 18.754977 C 7.844273 18.618712 8.031572 18.486655 8.222028 18.359334 C 8.412484 18.232013 8.606096 18.109427 8.802602 17.991839 C 8.998846 17.873987 9.198509 17.761134 9.400276 17.653016 C 9.60257 17.544899 9.806968 17.442042 10.014259 17.344183 C 10.221288 17.246062 10.430684 17.153464 10.642448 17.065865 C 10.853949 16.978003 11.067817 16.895665 11.283527 16.818325 C 11.499236 16.740985 11.716787 16.66917 11.93618 16.602879 C 12.155309 16.536324 12.376017 16.475031 12.598303 16.419525 C 12.82059 16.36402 13.043928 16.313775 13.268582 16.269055 C 13.493235 16.224335 13.719205 16.185139 13.945963 16.151467 C 14.172458 16.118058 14.399742 16.089648 14.627816 16.067287 C 14.855889 16.044927 15.084226 16.028091 15.313089 16.017043 C 15.541951 16.005468 15.771077 15.999944 15.99994 15.999944 L 35.999909 15.999944 C 36.196415 16.000207 36.392658 16.004942 36.588901 16.014412 C 36.784881 16.024145 36.980862 16.038614 37.176316 16.057817 C 37.37177 16.077021 37.566434 16.101222 37.760836 16.129896 C 37.954975 16.158832 38.148324 16.192241 38.341148 16.230385 C 38.533708 16.268792 38.725216 16.311934 38.915935 16.359548 C 39.106391 16.407425 39.295531 16.459774 39.483357 16.516595 C 39.671445 16.573679 39.857692 16.635235 40.042624 16.701263 C 40.227555 16.767818 40.410645 16.838318 40.592157 16.913553 C 40.773669 16.988789 40.953076 17.068233 41.130642 17.152149 C 41.308208 17.236065 41.483406 17.324454 41.656763 17.416788 C 41.829857 17.509385 42.000846 17.606192 42.169205 17.707207 C 42.337564 17.808222 42.503555 17.913183 42.666916 18.022354 C 42.830276 18.131524 42.990743 18.24464 43.14858 18.361439 C 43.306153 18.478501 43.461096 18.599245 43.612619 18.723936 C 43.764404 18.848364 43.913297 18.976737 44.058769 19.108531 C 44.204242 19.240324 44.346557 19.3758 44.485453 19.514696 C 44.624349 19.653592 44.759563 19.795645 44.891356 19.941117 C 45.023412 20.086853 45.151523 20.235482 45.27595 20.387268 C 45.400904 20.539054 45.521386 20.693734 45.638711 20.85157 C 45.75551 21.009406 45.868626 21.169873 45.977796 21.333234 C 46.086703 21.496331 46.191664 21.662323 46.29268 21.830681 C 46.393695 21.99904 46.490501 22.17003 46.583098 22.343123 C 46.675433 22.51648 46.763821 22.691679 46.847737 22.869245 C 46.931654 23.04681 47.011361 23.226481 47.086596 23.407993 C 47.161569 23.589241 47.232332 23.772595 47.298623 23.957263 C 47.364651 24.142195 47.426471 24.328705 47.483292 24.51653 C 47.540376 24.704618 47.592725 24.893759 47.640602 25.084215 C 47.687953 25.27467 47.731095 25.466178 47.769502 25.658739 C 47.807645 25.851562 47.841317 26.045175 47.870254 26.239313 C 47.898927 26.433715 47.923129 26.62838 47.942332 26.823834 C 47.961536 27.019288 47.975741 27.215005 47.985737 27.411248 C 47.995208 27.607492 47.999943 27.803735 47.999943 27.999978 L 47.999943 36.000176 " stroke="#ffffff" stroke-width="10" stroke-opacity="1" stroke-miterlimit="4"/><path stroke-linecap="round" transform="matrix(7.424621, -7.424621, 7.424621, 7.424621, 7.537925, 749.999915)" fill="none" stroke-linejoin="round" d="M 55.999879 44.000119 L 15.999941 44.000119 C 15.770815 43.999856 15.541689 43.994332 15.31309 43.98302 C 15.084227 43.971972 14.85589 43.955136 14.627817 43.932776 C 14.399743 43.90989 14.172459 43.882005 13.945701 43.848333 C 13.719206 43.814925 13.493237 43.775729 13.268583 43.731008 C 13.043929 43.686288 12.820591 43.636044 12.598305 43.580538 C 12.376018 43.524506 12.155311 43.463739 11.936181 43.397185 C 11.716526 43.33063 11.499501 43.258815 11.283528 43.181738 C 11.067818 43.104398 10.85395 43.02206 10.642449 42.934198 C 10.430686 42.846599 10.221289 42.754001 10.014261 42.65588 C 9.807232 42.557758 9.602308 42.454902 9.40054 42.346784 C 9.19851 42.238929 8.99911 42.125813 8.802604 42.008225 C 8.605834 41.890374 8.412485 41.76805 8.222029 41.640729 C 8.031573 41.513408 7.844274 41.381351 7.660395 41.244823 C 7.476252 41.108558 7.295793 40.967557 7.11849 40.822348 C 6.94145 40.676875 6.768093 40.527194 6.598419 40.373303 C 6.428219 40.219413 6.262491 40.061576 6.100446 39.899531 C 5.9384 39.737486 5.780564 39.571758 5.626936 39.401821 C 5.472783 39.231883 5.323102 39.058527 5.177629 38.881487 C 5.032683 38.704447 4.891419 38.523724 4.754891 38.339845 C 4.618625 38.155703 4.486569 37.968404 4.359248 37.777948 C 4.231926 37.587492 4.109603 37.394142 3.991752 37.197373 C 3.874164 37.000867 3.761048 36.801467 3.653193 36.599436 C 3.545075 36.397669 3.442218 36.192745 3.344097 35.985716 C 3.245975 35.778687 3.153378 35.569291 3.065779 35.357527 C 2.977917 35.146027 2.895579 34.932158 2.818239 34.716449 C 2.741425 34.500739 2.669347 34.283451 2.602792 34.063795 C 2.536238 33.844666 2.475471 33.623958 2.419439 33.401672 C 2.363933 33.179386 2.313689 32.956047 2.268968 32.731394 C 2.224248 32.50674 2.185052 32.280771 2.151643 32.054276 C 2.117972 31.827518 2.090087 31.600233 2.067464 31.372423 C 2.044841 31.144086 2.028005 30.91575 2.016956 30.686887 C 2.005645 30.458287 2.00012 30.229162 1.999857 30.000036 C 2.00012 29.77091 2.005645 29.541784 2.016956 29.313185 C 2.028005 29.084322 2.045104 28.855722 2.067464 28.627649 C 2.089824 28.399575 2.117972 28.172554 2.151643 27.945796 C 2.185315 27.719038 2.224248 27.493332 2.268968 27.268678 C 2.313689 27.044024 2.363933 26.820686 2.419439 26.5984 C 2.475208 26.37585 2.536238 26.155406 2.603055 25.936013 C 2.669347 25.716621 2.741162 25.499069 2.818239 25.283623 C 2.895579 25.067913 2.977917 24.854045 3.065779 24.642544 C 3.153378 24.43078 3.245975 24.221384 3.344097 24.014356 C 3.441955 23.807064 3.545075 23.602403 3.65293 23.400372 C 3.761311 23.198342 3.873901 22.998942 3.991752 22.802699 C 4.109603 22.605929 4.232189 22.412317 4.359511 22.221861 C 4.486832 22.031405 4.618625 21.844369 4.754891 21.660227 C 4.891682 21.476084 5.032683 21.295625 5.177892 21.118322 C 5.323365 20.941282 5.473046 20.767925 5.626673 20.597988 C 5.780564 20.428314 5.9384 20.262586 6.100446 20.10054 C 6.262491 19.938495 6.428482 19.780396 6.598156 19.626505 C 6.768093 19.472878 6.94145 19.323196 7.11849 19.177724 C 7.295793 19.032515 7.476252 18.891514 7.660132 18.754986 C 7.844274 18.61872 8.031573 18.486664 8.222029 18.359343 C 8.412485 18.232021 8.606097 18.109435 8.802604 17.991847 C 8.998847 17.873996 9.19851 17.761143 9.400277 17.653025 C 9.602571 17.544907 9.806969 17.44205 10.014261 17.344192 C 10.221289 17.24607 10.430686 17.153473 10.642449 17.065874 C 10.85395 16.978011 11.067818 16.895674 11.283528 16.818334 C 11.499238 16.740994 11.716789 16.669178 11.936181 16.602887 C 12.155311 16.536333 12.376018 16.47504 12.598305 16.419534 C 12.820591 16.364028 13.043929 16.313784 13.268583 16.269063 C 13.493237 16.224343 13.719206 16.185147 13.945964 16.151475 C 14.172459 16.118066 14.399743 16.089656 14.627817 16.067296 C 14.85589 16.044936 15.084227 16.0281 15.31309 16.017051 C 15.541952 16.005477 15.771078 15.999952 15.999941 15.999952 L 35.99991 15.999952 C 36.196416 16.000215 36.392659 16.00495 36.588903 16.014421 C 36.784883 16.024154 36.980863 16.038622 37.176317 16.057826 C 37.371771 16.077029 37.566436 16.101231 37.760837 16.129904 C 37.954976 16.158841 38.148326 16.19225 38.341149 16.230393 C 38.533709 16.2688 38.725217 16.311942 38.915936 16.359556 C 39.106392 16.407433 39.295533 16.459782 39.483358 16.516603 C 39.671446 16.573687 39.857693 16.635244 40.042625 16.701272 C 40.227556 16.767826 40.410646 16.838326 40.592158 16.913562 C 40.77367 16.988797 40.953077 17.068241 41.130643 17.152158 C 41.308209 17.236074 41.483407 17.324462 41.656764 17.416797 C 41.829858 17.509394 42.000848 17.6062 42.169206 17.707215 C 42.337565 17.808231 42.503556 17.913192 42.666917 18.022362 C 42.830278 18.131532 42.990745 18.244648 43.148581 18.361447 C 43.306154 18.478509 43.461097 18.599254 43.61262 18.723944 C 43.764406 18.848372 43.913298 18.976746 44.05877 19.108539 C 44.204243 19.240332 44.346559 19.375809 44.485455 19.514705 C 44.624351 19.653601 44.759564 19.795653 44.891357 19.941126 C 45.023414 20.086861 45.151524 20.235491 45.275952 20.387276 C 45.400905 20.539062 45.521387 20.693742 45.638712 20.851578 C 45.755511 21.009415 45.868627 21.169882 45.977797 21.333242 C 46.086704 21.49634 46.191666 21.662331 46.292681 21.83069 C 46.393696 21.999049 46.490502 22.170038 46.5831 22.343132 C 46.675434 22.516489 46.763822 22.691687 46.847739 22.869253 C 46.931655 23.046819 47.011362 23.226489 47.086598 23.408001 C 47.16157 23.58925 47.232333 23.772603 47.298624 23.957271 C 47.364653 24.142203 47.426209 24.32845 47.483293 24.516538 C 47.540377 24.704627 47.592726 24.893767 47.640603 25.084223 C 47.687954 25.274679 47.731096 25.466187 47.769503 25.658747 C 47.807647 25.851571 47.841318 26.045183 47.870255 26.239322 C 47.898929 26.433724 47.92313 26.628388 47.942334 26.823842 C 47.961537 27.019296 47.975742 27.215014 47.985476 27.410994 C 47.995209 27.6075 47.999944 27.803743 47.999944 27.999986 L 47.999944 36.000184 " stroke="#ffffff" stroke-width="10" stroke-opacity="1" stroke-miterlimit="4"/><g clip-path="url(#94e729f7d6)"><g clip-path="url(#5c66da5231)"><g transform="matrix(1, 0, 0, 1, 637, 637)"><g clip-path="url(#c355cb095e)"><g clip-path="url(#f4fb89be14)"><g clip-path="url(#20f10a4fe3)"><path fill="#2563eb" d="M 0.5 0.5 L 225.5 0.5 L 225.5 225.5 L 0.5 225.5 Z M 0.5 0.5 " fill-opacity="1" fill-rule="nonzero"/></g></g></g></g><path stroke-linecap="butt" transform="matrix(0.75, 0, 0, 0.75, 637.499978, 637.499925)" fill="none" stroke-linejoin="miter" d="M 150.000042 0.00009988 C 67.156285 0.00009988 0.0000287467 67.156356 0.0000287467 150.000113 C 0.0000287467 232.84387 67.156285 300.000126 150.000042 300.000126 C 232.843799 300.000126 300.000055 232.84387 300.000055 150.000113 C 300.000055 67.156356 232.843799 0.00009988 150.000042 0.00009988 Z M 150.000042 0.00009988 " stroke="#2563eb" stroke-width="8" stroke-opacity="1" stroke-miterlimit="4"/></g></g></svg>